<?xml version="1.0" standalone="no"?>
<!DOCTYPE svg PUBLIC "-//W3C//DTD SVG 20010904//EN"
 "http://www.w3.org/TR/2001/REC-SVG-20010904/DTD/svg10.dtd">
<svg version="1.0" xmlns="http://www.w3.org/2000/svg"
 width="100.000000pt" height="100.000000pt" viewBox="0 0 100.000000 100.000000"
 preserveAspectRatio="xMidYMid meet">
<metadata>
Created by potrace 1.11, written by Peter Selinger 2001-2013
</metadata>
<g transform="translate(0.000000,100.000000) scale(0.100000,-0.100000)"
fill="#000000" stroke="none">
<path d="M440 886 c-25 -18 -105 -77 -179 -130 l-134 -96 367 0 c202 0 365 4
362 8 -3 5 -38 31 -78 57 -40 27 -75 51 -78 54 -7 9 -207 141 -211 141 -2 0
-24 -16 -49 -34z"/>
<path d="M211 446 l-2 -144 43 -3 c93 -8 88 -17 88 147 l0 144 -63 0 -63 0 -3
-144z"/>
<path d="M439 588 c-6 -16 -2 -281 4 -285 12 -7 102 -8 113 0 5 3 9 68 9 144
l-1 138 -62 3 c-34 2 -63 2 -63 0z"/>
<path d="M660 445 c0 -155 -3 -147 50 -147 11 0 33 0 50 1 l29 1 -1 145 -1
145 -63 0 -64 0 0 -145z"/>
<path d="M137 236 c-3 -9 -2 -87 2 -119 1 -4 164 -6 363 -5 l363 3 1 55 c0 30
-1 60 -3 66 -5 15 -721 15 -726 0z"/>
</g>
</svg>
